<?xml version="1.0" encoding="UTF-8" ?>
<!DOCTYPE svg PUBLIC "-//W3C//DTD SVG 1.1//EN" "http://www.w3.org/Graphics/SVG/1.1/DTD/svg11.dtd">
<svg width="1770pt" height="608pt" viewBox="0 0 1770 608" version="1.1" xmlns="http://www.w3.org/2000/svg">
<g id="#0b1970ff">
<path fill="#0b1970" opacity="1.00" d=" M 1381.43 27.52 C 1400.13 23.38 1421.24 30.89 1432.24 46.77 C 1442.96 62.05 1443.13 83.99 1432.23 99.22 C 1422.55 113.28 1404.79 120.41 1388.03 119.04 C 1373.15 118.06 1358.59 110.15 1350.75 97.29 C 1341.27 82.45 1341.57 62.08 1351.53 47.56 C 1358.39 37.33 1369.37 30.00 1381.43 27.52 Z" />
<path fill="#0b1970" opacity="1.00" d=" M 533.94 30.16 C 562.14 29.41 590.35 30.00 618.56 29.73 C 639.05 89.30 657.14 149.65 676.51 209.59 C 680.91 223.51 685.82 237.28 689.82 251.34 C 698.12 278.73 707.66 305.76 715.09 333.42 C 716.39 333.02 717.72 332.63 719.04 332.23 C 727.94 296.10 740.75 261.12 751.81 225.64 C 771.33 163.22 791.36 100.96 810.65 38.47 C 812.02 35.28 812.36 29.84 816.95 29.95 C 844.26 29.44 871.58 29.93 898.89 29.75 C 894.93 48.25 886.78 65.46 881.44 83.55 C 875.34 103.95 868.08 123.97 861.03 144.06 C 854.46 162.47 848.58 181.12 842.35 199.65 C 854.88 211.88 870.29 220.64 886.14 227.81 C 903.29 235.92 921.50 241.53 939.89 246.03 C 964.35 251.68 989.69 255.22 1014.78 252.39 C 1026.35 251.00 1038.63 248.67 1047.60 240.65 C 1051.41 237.07 1055.45 232.54 1055.10 226.94 C 1054.74 220.33 1050.25 214.68 1044.87 211.20 C 1014.52 189.72 968.79 191.43 942.00 218.01 C 937.72 221.63 933.75 227.98 927.32 226.78 C 905.60 220.59 885.77 209.31 866.80 197.28 C 880.03 170.94 904.19 151.41 930.98 139.96 C 947.43 132.89 964.97 127.90 982.95 127.30 C 1005.39 125.78 1028.46 126.75 1049.85 134.28 C 1073.09 141.92 1095.15 155.28 1109.75 175.27 C 1120.73 190.50 1127.49 209.08 1127.26 227.98 C 1127.49 258.10 1110.62 287.46 1084.79 302.85 C 1067.65 313.53 1047.86 319.20 1027.98 321.93 C 994.00 326.63 959.67 322.77 925.80 319.00 C 932.73 333.22 945.68 343.55 959.75 350.20 C 968.08 354.02 976.75 357.53 985.96 358.43 C 996.41 359.47 1006.97 359.28 1017.40 358.19 C 1033.09 356.45 1045.73 345.95 1060.41 341.13 C 1072.65 361.02 1087.17 379.35 1100.83 398.24 C 1071.77 420.12 1035.36 431.98 998.98 431.26 C 963.65 432.01 928.39 419.97 900.51 398.36 C 876.79 380.18 858.91 354.69 849.50 326.36 C 845.17 313.67 842.83 300.40 841.78 287.07 C 835.02 280.63 825.95 277.10 817.95 272.37 C 800.41 324.34 782.81 376.29 765.56 428.36 C 739.70 428.77 713.83 428.41 687.97 428.54 C 681.09 428.37 674.09 429.20 667.34 427.45 C 653.60 390.48 642.76 352.53 629.77 315.30 C 597.45 220.38 565.84 125.22 533.94 30.16 Z" />
<path fill="#0b1970" opacity="1.00" d=" M 1523.40 152.42 C 1553.85 134.79 1591.33 128.89 1625.39 138.44 C 1642.19 143.05 1658.03 151.35 1671.05 162.98 C 1671.06 154.74 1671.03 146.50 1671.07 138.26 C 1697.29 138.43 1723.52 138.31 1749.74 138.35 C 1749.78 234.17 1749.69 329.98 1749.80 425.80 C 1723.55 425.89 1697.31 425.84 1671.06 425.84 C 1671.03 417.97 1671.06 410.10 1671.05 402.24 C 1657.43 413.88 1641.02 422.16 1623.65 426.49 C 1589.77 434.94 1552.87 428.77 1522.98 410.96 C 1493.39 393.47 1470.61 365.19 1459.01 332.91 C 1445.87 297.11 1447.55 256.40 1462.51 221.43 C 1474.76 192.73 1496.28 167.95 1523.40 152.42 M 1589.55 205.80 C 1569.19 208.25 1550.46 219.92 1538.45 236.41 C 1526.75 252.21 1521.51 272.61 1524.10 292.09 C 1526.07 307.75 1532.94 322.78 1543.61 334.43 C 1557.12 349.33 1576.82 358.43 1596.94 358.97 C 1612.81 359.63 1628.70 354.70 1641.82 345.84 C 1656.82 335.80 1668.15 320.43 1673.35 303.15 C 1677.81 288.61 1677.38 272.70 1672.41 258.35 C 1666.14 240.10 1653.05 224.24 1636.19 214.82 C 1622.18 206.84 1605.53 203.64 1589.55 205.80 Z" />
<path fill="#0b1970" opacity="1.00" d=" M 85.27 166.27 C 108.04 148.52 136.10 137.69 164.90 135.65 C 192.54 133.62 220.76 139.57 245.07 152.93 C 275.38 169.58 299.29 197.33 311.75 229.55 C 287.90 236.44 264.04 243.32 240.17 250.13 C 233.18 235.10 221.99 221.67 207.25 213.76 C 193.88 206.43 177.94 204.20 162.99 207.01 C 148.44 209.61 134.88 216.99 124.48 227.43 C 111.09 240.79 102.68 259.03 101.31 277.90 C 99.19 304.80 112.11 332.38 134.36 347.72 C 149.24 358.25 168.21 362.82 186.25 360.06 C 198.79 358.22 210.82 352.80 220.33 344.39 C 228.92 336.94 235.58 327.43 240.20 317.07 C 264.05 323.96 287.93 330.76 311.77 337.68 C 301.16 364.85 282.56 388.94 258.58 405.62 C 234.28 422.62 204.59 431.64 174.96 431.41 C 144.21 431.45 113.56 421.46 88.73 403.31 C 64.64 385.84 46.09 360.90 36.24 332.82 C 25.69 303.25 25.09 270.33 34.18 240.30 C 42.92 211.09 61.14 184.88 85.27 166.27 Z" />
<path fill="#0b1970" opacity="1.00" d=" M 439.51 135.81 C 479.21 132.12 520.01 145.72 549.74 172.24 C 574.60 194.08 592.16 224.28 597.95 256.94 C 604.49 292.28 597.40 329.88 578.51 360.44 C 560.30 390.28 531.28 413.40 498.00 424.18 C 465.45 434.89 429.12 433.70 397.43 420.61 C 358.68 404.88 327.34 372.11 313.25 332.74 C 302.80 304.16 301.77 272.30 310.10 243.06 C 317.57 216.37 332.85 191.97 353.49 173.49 C 377.14 152.17 407.69 138.37 439.51 135.81 M 441.52 207.74 C 423.92 210.18 407.66 219.71 396.17 233.16 C 385.88 245.09 379.59 260.33 378.13 275.99 C 376.49 294.25 381.49 313.07 392.11 328.02 C 400.80 340.39 413.26 350.08 427.45 355.31 C 453.26 365.13 484.27 358.26 503.67 338.65 C 518.91 323.71 527.69 302.36 527.02 280.99 C 526.51 255.02 511.97 229.66 489.32 216.77 C 475.01 208.49 457.86 205.29 441.52 207.74 Z" />
<path fill="#0b1970" opacity="1.00" d=" M 1276.02 143.84 C 1294.62 137.52 1314.77 137.33 1334.05 140.22 C 1334.05 168.28 1334.05 196.34 1334.05 224.40 C 1314.62 217.38 1292.71 216.04 1273.11 223.11 C 1261.01 227.37 1249.87 234.86 1242.32 245.34 C 1235.19 255.04 1230.87 266.92 1230.74 279.00 C 1230.47 328.91 1230.66 378.82 1230.70 428.74 C 1204.47 428.96 1178.24 428.80 1152.00 428.85 C 1152.00 332.99 1151.99 237.12 1152.01 141.25 C 1178.20 141.45 1204.40 141.30 1230.60 141.35 C 1230.60 154.10 1230.61 166.84 1230.59 179.59 C 1241.11 162.99 1257.40 150.15 1276.02 143.84 Z" />
<path fill="#0b1970" opacity="1.00" d=" M 1351.95 142.55 C 1378.16 142.50 1404.37 142.66 1430.58 142.44 C 1430.74 238.31 1430.61 334.18 1430.65 430.04 C 1404.42 430.06 1378.18 430.05 1351.95 430.05 C 1351.95 334.22 1351.94 238.39 1351.95 142.55 Z" />
</g>
<g id="#f2c1a7ff">
<path fill="#f2c1a7" opacity="1.00" d=" M 313.96 473.09 C 320.87 467.25 330.05 464.84 338.94 464.36 C 349.39 463.91 360.45 465.61 369.19 471.72 C 377.68 477.60 382.09 488.02 382.04 498.17 C 376.52 498.60 371.00 499.02 365.49 499.46 C 364.99 494.10 363.55 488.35 359.20 484.78 C 353.87 480.39 346.53 479.97 339.93 480.17 C 334.02 480.44 327.32 481.58 323.48 486.57 C 319.38 491.28 320.61 499.70 326.52 502.32 C 339.81 508.36 354.97 508.71 368.17 515.04 C 373.62 517.77 378.63 521.76 381.60 527.17 C 386.59 536.15 385.91 547.76 380.41 556.36 C 375.05 565.19 365.19 570.31 355.27 572.08 C 347.20 573.45 338.89 573.09 330.88 571.56 C 321.76 569.81 312.91 565.19 307.39 557.56 C 302.54 551.13 300.35 543.05 300.36 535.07 C 305.79 534.54 311.22 534.03 316.65 533.52 C 317.29 539.37 318.68 545.70 323.21 549.85 C 329.09 555.10 337.23 557.09 344.96 557.08 C 351.26 557.05 357.91 555.91 363.06 552.04 C 367.62 548.63 369.61 542.03 367.15 536.80 C 365.25 532.70 360.93 530.56 356.90 529.10 C 345.93 525.43 334.35 523.84 323.52 519.69 C 316.31 516.90 309.55 511.86 306.43 504.59 C 301.71 493.93 305.13 480.57 313.96 473.09 Z" />
<path fill="#f2c1a7" opacity="1.00" d=" M 502.04 471.05 C 510.85 465.27 521.79 463.71 532.13 464.45 C 541.78 465.15 551.82 468.16 558.71 475.27 C 564.61 481.30 567.40 489.82 567.43 498.16 C 561.92 498.60 556.40 499.02 550.89 499.45 C 550.40 494.25 549.05 488.68 544.96 485.10 C 539.82 480.56 532.53 480.01 525.99 480.14 C 520.02 480.37 513.24 481.32 509.18 486.21 C 505.23 490.44 505.55 498.15 510.51 501.48 C 515.22 504.36 520.72 505.55 526.00 506.95 C 538.41 510.18 552.28 511.79 562.08 520.88 C 571.69 529.63 572.84 545.24 566.02 556.01 C 559.50 567.02 546.41 572.28 534.08 572.83 C 522.16 573.25 509.34 571.72 499.53 564.37 C 490.43 557.63 485.59 546.25 485.76 535.07 C 491.19 534.54 496.62 534.03 502.06 533.52 C 502.70 539.73 504.32 546.51 509.46 550.59 C 516.89 556.48 526.97 557.87 536.15 556.70 C 541.74 555.89 547.72 553.92 551.19 549.18 C 554.73 544.48 554.44 537.03 549.79 533.17 C 544.90 529.09 538.42 527.95 532.46 526.28 C 522.77 523.69 512.62 522.06 503.72 517.21 C 497.19 513.60 491.87 507.43 490.34 500.02 C 487.84 489.17 492.74 477.14 502.04 471.05 Z" />
<path fill="#f2c1a7" opacity="1.00" d=" M 1448.61 481.53 C 1461.27 465.66 1484.41 460.64 1503.28 466.83 C 1516.06 471.01 1525.51 482.34 1529.00 495.12 C 1528.50 495.92 1528.03 496.73 1527.58 497.54 C 1522.60 498.71 1517.62 499.90 1512.65 501.06 C 1510.65 494.58 1507.74 487.87 1502.04 483.83 C 1495.38 479.13 1486.65 478.82 1478.91 480.29 C 1470.00 481.95 1462.22 488.38 1458.87 496.79 C 1454.69 507.32 1454.14 519.03 1456.01 530.13 C 1457.34 537.50 1459.97 545.10 1465.66 550.27 C 1474.48 558.10 1488.11 559.95 1498.72 554.83 C 1507.08 550.87 1511.80 542.09 1513.60 533.35 C 1514.35 532.86 1515.12 532.38 1515.90 531.91 C 1520.39 533.05 1524.91 534.15 1529.40 535.34 C 1529.73 535.93 1530.40 537.09 1530.73 537.68 C 1528.42 546.55 1524.29 555.20 1517.52 561.54 C 1510.17 568.59 1500.09 572.40 1489.98 572.83 C 1480.07 573.24 1469.74 571.98 1460.99 567.03 C 1447.69 559.58 1440.71 544.66 1438.33 530.14 C 1435.71 513.52 1437.90 495.07 1448.61 481.53 Z" />
<path fill="#f2c1a7" opacity="1.00" d=" M 148.02 466.09 C 153.71 466.09 159.41 466.09 165.10 466.09 C 179.09 500.28 193.05 534.48 207.04 568.68 C 206.44 569.55 205.85 570.43 205.26 571.32 C 199.73 571.31 194.19 571.31 188.66 571.31 C 184.71 561.05 180.79 550.79 176.85 540.53 C 163.61 540.52 150.37 540.52 137.13 540.53 C 133.41 550.79 129.69 561.05 125.97 571.31 C 120.77 571.31 115.57 571.31 110.37 571.31 C 109.92 570.66 109.04 569.36 108.59 568.71 C 121.73 534.50 134.87 500.29 148.02 466.09 M 156.52 486.02 C 152.80 499.56 147.14 512.45 142.45 525.67 C 152.02 525.68 161.59 525.67 171.15 525.67 C 166.29 512.45 161.00 499.38 156.52 486.02 Z" />
<path fill="#f2c1a7" opacity="1.00" d=" M 675.99 468.03 C 676.64 467.37 677.29 466.72 677.95 466.07 C 682.48 466.12 687.01 466.02 691.54 466.15 C 691.97 466.62 692.83 467.57 693.26 468.05 C 693.27 484.36 693.26 500.67 693.26 516.98 C 693.42 526.14 692.58 535.57 695.35 544.44 C 697.44 551.05 703.91 555.26 710.51 556.34 C 716.49 557.29 722.72 557.03 728.56 555.41 C 732.99 554.17 737.21 551.34 739.05 546.99 C 742.32 539.48 742.32 531.08 742.32 523.03 C 742.30 504.70 742.33 486.36 742.30 468.03 C 742.93 467.38 743.57 466.73 744.22 466.08 C 748.72 466.07 753.23 466.12 757.74 466.05 C 758.34 467.00 759.71 467.70 759.55 468.99 C 759.57 488.66 759.57 508.34 759.55 528.01 C 759.39 536.79 758.68 545.87 754.90 553.93 C 750.20 563.51 740.41 569.93 730.06 571.82 C 721.28 573.43 712.15 573.31 703.44 571.37 C 694.64 569.40 686.26 564.22 681.79 556.22 C 677.18 547.96 676.30 538.27 676.04 528.99 C 675.96 508.67 676.06 488.35 675.99 468.03 Z" />
<path fill="#f2c1a7" opacity="1.00" d=" M 871.23 466.05 C 885.49 466.13 899.76 466.07 914.02 466.08 C 923.21 466.17 933.07 466.06 941.29 470.75 C 955.48 479.46 958.68 501.34 947.87 513.91 C 943.29 519.45 936.46 522.49 929.60 524.11 C 938.61 530.30 944.17 540.01 949.93 549.03 C 954.03 555.47 958.13 561.92 962.25 568.36 C 961.70 569.33 961.16 570.32 960.64 571.31 C 954.67 571.31 948.70 571.31 942.74 571.31 C 935.25 559.82 928.34 547.93 920.24 536.85 C 916.78 532.06 912.23 527.23 906.03 526.56 C 899.58 526.08 893.11 526.42 886.66 526.33 C 886.65 540.70 886.68 555.07 886.65 569.45 C 886.18 569.91 885.23 570.84 884.75 571.31 C 880.30 571.32 875.84 571.29 871.39 571.33 C 870.73 570.71 870.07 570.09 869.42 569.49 C 869.39 536.01 869.40 502.54 869.41 469.06 C 869.23 467.73 870.53 466.98 871.23 466.05 M 886.66 481.11 C 886.66 491.03 886.66 500.95 886.66 510.87 C 896.12 510.86 905.58 510.90 915.04 510.86 C 920.30 510.69 925.91 510.39 930.49 507.51 C 937.25 503.17 938.74 492.62 933.38 486.63 C 929.65 482.24 923.52 481.29 918.07 481.14 C 907.60 481.07 897.13 481.13 886.66 481.11 Z" />
<path fill="#f2c1a7" opacity="1.00" d=" M 1051.39 568.72 C 1064.53 534.51 1077.67 500.30 1090.82 466.09 C 1096.51 466.09 1102.20 466.09 1107.90 466.09 C 1121.89 500.28 1135.86 534.49 1149.84 568.69 C 1149.39 569.35 1148.50 570.66 1148.06 571.31 C 1142.52 571.31 1136.98 571.32 1131.45 571.31 C 1127.53 561.04 1123.58 550.79 1119.66 540.53 C 1106.41 540.52 1093.17 540.52 1079.93 540.53 C 1076.20 550.79 1072.49 561.05 1068.77 571.31 C 1063.57 571.31 1058.38 571.31 1053.19 571.32 C 1052.74 570.67 1051.84 569.37 1051.39 568.72 M 1099.32 486.02 C 1095.60 499.56 1089.94 512.46 1085.25 525.67 C 1094.81 525.68 1104.39 525.67 1113.96 525.68 C 1109.08 512.45 1103.80 499.38 1099.32 486.02 Z" />
<path fill="#f2c1a7" opacity="1.00" d=" M 1249.50 466.11 C 1254.48 466.08 1259.46 466.05 1264.45 466.13 C 1281.13 491.22 1297.93 516.23 1314.66 541.28 C 1314.67 516.86 1314.66 492.44 1314.66 468.02 C 1315.12 467.54 1316.04 466.58 1316.50 466.11 C 1320.84 466.07 1325.18 466.07 1329.54 466.11 C 1329.99 466.59 1330.91 467.54 1331.36 468.02 C 1331.37 501.80 1331.36 535.58 1331.37 569.36 C 1330.91 569.84 1329.99 570.81 1329.53 571.29 C 1324.57 571.33 1319.61 571.30 1314.66 571.32 C 1297.88 546.22 1281.14 521.10 1264.37 496.00 C 1264.36 520.46 1264.36 544.91 1264.37 569.36 C 1263.91 569.84 1263.01 570.80 1262.56 571.29 C 1258.19 571.33 1253.84 571.32 1249.48 571.29 C 1249.03 570.81 1248.12 569.84 1247.66 569.36 C 1247.67 535.58 1247.66 501.80 1247.66 468.02 C 1248.12 467.54 1249.04 466.58 1249.50 466.11 Z" />
<path fill="#f2c1a7" opacity="1.00" d=" M 1636.46 466.13 C 1660.93 466.03 1685.41 466.12 1709.88 466.08 C 1710.50 466.72 1711.14 467.37 1711.81 468.02 C 1711.78 472.01 1711.78 476.00 1711.81 480.00 C 1711.14 480.63 1710.50 481.28 1709.88 481.94 C 1690.56 481.91 1671.24 481.93 1651.93 481.93 C 1651.92 490.97 1651.92 500.02 1651.93 509.07 C 1669.63 509.09 1687.34 509.05 1705.04 509.09 C 1706.37 508.86 1707.06 510.29 1708.05 510.94 C 1707.95 514.95 1707.99 518.97 1708.02 522.99 C 1707.34 523.64 1706.68 524.29 1706.05 524.95 C 1688.00 524.90 1669.96 524.94 1651.93 524.93 C 1651.92 535.11 1651.92 545.30 1651.93 555.48 C 1672.04 555.49 1692.16 555.47 1712.28 555.49 C 1712.75 555.97 1713.69 556.91 1714.16 557.39 C 1714.16 561.38 1714.15 565.38 1714.17 569.38 C 1713.51 570.02 1712.87 570.66 1712.25 571.32 C 1687.03 571.31 1661.82 571.31 1636.60 571.32 C 1635.94 570.67 1635.29 570.03 1634.67 569.39 C 1634.68 535.60 1634.66 501.81 1634.68 468.03 C 1635.12 467.55 1636.02 466.60 1636.46 466.13 Z" />
</g>
</svg>
